# File created by Blade
# Date/Time:  Tue Jan 27 19:14:06 2015
# Frame Rate: 120.000 fps
#------------------------------------------------------
:FULLY-SPECIFIED
:DEGREES
2676
root 4.118606 32.359521 1.621341 -2.708388 14.149800 1.990787
Spine -1.591036 6.869875 -2.558039
Head 12.685740 -20.417133 -4.004801
LeftShoulder -6.298711 -8.571895 22.937294
LeftArm -6.383262 37.577122 -104.434658
LeftForeArm 5.371457 -0.000000 11.463443
LeftHand 9.995563 -0.000000 -7.355566
LeftHandThumb1 -26.253704 0.000000 33.147579
RightShoulder -17.740517 13.373249 -63.839228
RightArm 62.432742 59.743521 58.647197
RightForeArm 12.990007 0.000000 28.277757
RightHand 20.385195 -0.000000 -9.372009
RightHandThumb1 -24.326973 -0.000000 -32.862282
LeftUpLeg 9.270374 -7.872245 -1.695308
LeftLeg 1.575029 -0.000000 -0.000000
LeftFoot -13.347776 5.466982 -21.278526
LeftToeBase 18.969915 -0.000000 -0.000000
RightUpLeg 12.742366 -5.028467 2.695953
RightLeg -2.237676 -0.000000 0.000000
RightFoot -15.593013 -20.869559 16.667393
RightToeBase 11.653640 -0.000000 -0.000000
2677
root 4.119005 32.358977 1.620835 -2.707145 14.141082 1.988209
Spine -1.595609 6.867911 -2.554076
Head 12.663973 -20.403735 -4.033360
LeftShoulder -6.298762 -8.580330 22.955366
LeftArm -6.395613 37.597118 -104.461361
LeftForeArm 5.337364 -0.000000 11.443017
LeftHand 10.017615 -0.000000 -7.377159
LeftHandThumb1 -26.253704 0.000000 33.147579
RightShoulder -17.743818 13.374566 -63.807226
RightArm 62.300868 59.794570 58.525947
RightForeArm 13.016000 -0.000000 28.613859
RightHand 20.377266 0.000000 -9.256219
RightHandThumb1 -24.326973 -0.000000 -32.862282
LeftUpLeg 9.276176 -7.881017 -1.696513
LeftLeg 1.550822 -0.000000 -0.000000
LeftFoot -13.338536 5.508039 -21.263894
LeftToeBase 18.928931 -0.000000 -0.000000
RightUpLeg 12.732503 -5.092524 2.680956
RightLeg -2.222241 -0.000000 0.000000
RightFoot -15.581845 -20.783332 16.648572
RightToeBase 11.686990 -0.000000 -0.000000
2678
root 4.121421 32.358562 1.619539 -2.704746 14.130073 1.987196
Spine -1.605450 6.855649 -2.542222
Head 12.653829 -20.362236 -4.067105
LeftShoulder -6.303712 -8.570859 22.966007
LeftArm -6.399628 37.619675 -104.485588
LeftForeArm 5.330688 -0.000000 11.425758
LeftHand 10.030354 -0.000000 -7.280039
LeftHandThumb1 -26.253704 0.000000 33.147579
RightShoulder -17.738340 13.387392 -63.792272
RightArm 62.204253 59.840276 58.428005
RightForeArm 12.976222 -0.000000 28.879982
RightHand 20.418911 -0.000000 -9.399171
RightHandThumb1 -24.326973 -0.000000 -32.862282
LeftUpLeg 9.272161 -7.891499 -1.705439
LeftLeg 1.565487 -0.000000 -0.000000
LeftFoot -13.346030 5.507465 -21.359598
LeftToeBase 18.732021 -0.000000 -0.000000
RightUpLeg 12.726595 -5.062392 2.683880
RightLeg -2.220708 -0.000000 0.000000
RightFoot -15.586156 -20.805945 16.641123
RightToeBase 11.629813 -0.000000 -0.000000
2679
root 4.123385 32.358064 1.618600 -2.706907 14.134327 1.986187
Spine -1.608732 6.841271 -2.533154
Head 12.641779 -20.345536 -4.092988
LeftShoulder -6.298123 -8.573850 22.975682
LeftArm -6.405581 37.633248 -104.501001
LeftForeArm 5.339247 -0.000000 11.419168
LeftHand 10.013914 -0.000000 -7.317196
LeftHandThumb1 -26.253704 0.000000 33.147579
RightShoulder -17.752552 13.346594 -63.792456
RightArm 62.146619 59.887883 58.381259
RightForeArm 12.942728 0.000000 29.096023
RightHand 20.409011 -0.000000 -9.384946
RightHandThumb1 -24.326973 -0.000000 -32.862282
LeftUpLeg 9.268047 -7.884849 -1.707403
LeftLeg 1.585851 -0.000000 -0.000000
LeftFoot -13.314496 5.485228 -21.259006
LeftToeBase 18.449832 -0.000000 -0.000000
RightUpLeg 12.731741 -5.069891 2.678177
RightLeg -2.225544 -0.000000 0.000000
RightFoot -15.593347 -20.789578 16.656308
RightToeBase 11.679137 -0.000000 -0.000000
2680
root 4.125260 32.357514 1.618697 -2.711441 14.129016 1.984465
Spine -1.616035 6.820450 -2.522459
Head 12.642014 -20.294575 -4.117510
LeftShoulder -6.314483 -8.568389 22.987988
LeftArm -6.417082 37.642735 -104.518646
LeftForeArm 5.343387 -0.000000 11.405608
LeftHand 10.021048 -0.000000 -7.325953
LeftHandThumb1 -26.253704 0.000000 33.147579
RightShoulder -17.761584 13.299215 -63.783784
RightArm 62.280573 59.950791 58.536154
RightForeArm 12.938441 0.000000 29.279708
RightHand 20.493782 0.000000 -9.369309
RightHandThumb1 -24.326973 -0.000000 -32.862282
LeftUpLeg 9.276587 -7.852936 -1.700637
LeftLeg 1.559880 -0.000000 -0.000000
LeftFoot -13.354307 5.487157 -21.240234
LeftToeBase 18.939639 -0.000000 -0.000000
RightUpLeg 12.735615 -5.094974 2.669939
RightLeg -2.223750 -0.000000 0.000000
RightFoot -15.585409 -20.755885 16.653793
RightToeBase 11.684305 -0.000000 -0.000000
2681
root 4.127029 32.357471 1.618114 -2.711379 14.130170 1.988609
Spine -1.629504 6.800553 -2.523072
Head 12.660901 -20.281704 -4.124082
LeftShoulder -6.320155 -8.537083 22.990560
LeftArm -6.384246 37.618996 -104.498399
LeftForeArm 5.373359 0.000000 11.391946
LeftHand 9.972502 0.000000 -7.330412
LeftHandThumb1 -26.253704 0.000000 33.147579
RightShoulder -17.761061 13.284680 -63.775190
RightArm 62.433746 60.020604 58.747414
RightForeArm 12.992054 -0.000000 29.531075
RightHand 20.537063 -0.000000 -9.339092
RightHandThumb1 -24.326973 -0.000000 -32.862282
LeftUpLeg 9.272455 -7.849157 -1.707959
LeftLeg 1.576951 -0.000000 -0.000000
LeftFoot -13.344893 5.448112 -21.365772
LeftToeBase 18.718083 -0.000000 -0.000000
RightUpLeg 12.740567 -5.084905 2.664740
RightLeg -2.234290 -0.000000 0.000000
RightFoot -15.588408 -20.768972 16.657650
RightToeBase 11.622596 -0.000000 -0.000000
2682
root 4.128539 32.357829 1.616972 -2.708497 14.130843 1.991132
Spine -1.645953 6.763237 -2.519616
Head 12.676654 -20.258532 -4.130597
LeftShoulder -6.334360 -8.496849 22.974288
LeftArm -6.353605 37.595231 -104.463952
LeftForeArm 5.389593 -0.000000 11.383261
LeftHand 9.958560 -0.000000 -7.320837
LeftHandThumb1 -26.253704 0.000000 33.147579
RightShoulder -17.749804 13.281833 -63.766489
RightArm 62.648520 60.106676 59.053727
RightForeArm 12.953775 0.000000 29.773644
RightHand 20.535112 -0.000000 -9.299071
RightHandThumb1 -24.326973 -0.000000 -32.862282
LeftUpLeg 9.268728 -7.834865 -1.709163
LeftLeg 1.566763 -0.000000 -0.000000
LeftFoot -13.344807 5.466050 -21.258738
LeftToeBase 18.849581 -0.000000 -0.000000
RightUpLeg 12.732422 -5.067823 2.663644
RightLeg -2.225902 -0.000000 0.000000
RightFoot -15.580454 -20.800807 16.639018
RightToeBase 11.582431 -0.000000 -0.000000
